<svg xmlns="http://www.w3.org/2000/svg" xmlns:xlink="http://www.w3.org/1999/xlink" xml:space="preserve" width="800mm" height="418mm" viewBox="0 0 800 418"><defs><clipPath id="d"><path d="M791 464h62v82h-62zm0 0"/></clipPath><clipPath id="e"><path d="m793.574 483.594 17.145-17.168a6.135 6.135 0 0 1 8.68 0l50.914 50.984a6.144 6.144 0 0 1 0 8.688l-17.145 17.172a6.135 6.135 0 0 1-8.68 0l-50.914-50.985a6.156 6.156 0 0 1 0-8.691zm0 0"/></clipPath><clipPath id="f"><path d="M791 464h75v82h-75zm0 0"/></clipPath><clipPath id="g"><path d="m793.574 483.594 17.145-17.168a6.135 6.135 0 0 1 8.68 0l50.914 50.984a6.144 6.144 0 0 1 0 8.688l-17.145 17.172a6.135 6.135 0 0 1-8.68 0l-50.914-50.985a6.156 6.156 0 0 1 0-8.691zm0 0"/></clipPath><clipPath id="h"><path d="M791 464h82v82h-82zm0 0"/></clipPath><clipPath id="i"><path d="m793.574 483.594 17.145-17.168a6.135 6.135 0 0 1 8.68 0l50.914 50.984a6.144 6.144 0 0 1 0 8.688l-17.145 17.172a6.135 6.135 0 0 1-8.68 0l-50.914-50.985a6.156 6.156 0 0 1 0-8.691zm0 0"/></clipPath><clipPath id="j"><path d="M439 226h278v58H439Zm0 0"/></clipPath><clipPath id="k"><path d="M828.04 226.34H465.61c-14.255 0-25.813 11.57-25.813 25.844v31.77h414.05v-31.77c0-14.274-11.554-25.844-25.808-25.844zm-351.942 42.05h-9.075c-5.351 0-9.687-4.34-9.687-9.699 0-5.355 4.336-9.699 9.687-9.699h9.075c5.351 0 9.687 4.344 9.687 9.7 0 5.359-4.336 9.699-9.687 9.699zm34.035 0h-9.074c-5.352 0-9.688-4.34-9.688-9.699 0-5.355 4.336-9.699 9.688-9.699h9.074c5.347 0 9.687 4.344 9.687 9.7 0 5.359-4.34 9.699-9.687 9.699zm34.027 0h-9.074c-5.348 0-9.688-4.34-9.688-9.699 0-5.355 4.34-9.699 9.688-9.699h9.074c5.352 0 9.688 4.344 9.688 9.7 0 5.359-4.336 9.699-9.688 9.699zm0 0"/></clipPath><clipPath id="l"><path d="M439 226h291v58H439Zm0 0"/></clipPath><clipPath id="m"><path d="M828.04 226.34H465.61c-14.255 0-25.813 11.57-25.813 25.844v31.77h414.05v-31.77c0-14.274-11.554-25.844-25.808-25.844zm-351.942 42.05h-9.075c-5.351 0-9.687-4.34-9.687-9.699 0-5.355 4.336-9.699 9.687-9.699h9.075c5.351 0 9.687 4.344 9.687 9.7 0 5.359-4.336 9.699-9.687 9.699zm34.035 0h-9.074c-5.352 0-9.688-4.34-9.688-9.699 0-5.355 4.336-9.699 9.688-9.699h9.074c5.347 0 9.687 4.344 9.687 9.7 0 5.359-4.34 9.699-9.687 9.699zm34.027 0h-9.074c-5.348 0-9.688-4.34-9.688-9.699 0-5.355 4.34-9.699 9.688-9.699h9.074c5.352 0 9.688 4.344 9.688 9.7 0 5.359-4.336 9.699-9.688 9.699zm0 0"/></clipPath><clipPath id="n"><path d="M439 226h303v58H439Zm0 0"/></clipPath><clipPath id="o"><path d="M828.04 226.34H465.61c-14.255 0-25.813 11.57-25.813 25.844v31.77h414.05v-31.77c0-14.274-11.554-25.844-25.808-25.844zm-351.942 42.05h-9.075c-5.351 0-9.687-4.34-9.687-9.699 0-5.355 4.336-9.699 9.687-9.699h9.075c5.351 0 9.687 4.344 9.687 9.7 0 5.359-4.336 9.699-9.687 9.699zm34.035 0h-9.074c-5.352 0-9.688-4.34-9.688-9.699 0-5.355 4.336-9.699 9.688-9.699h9.074c5.347 0 9.687 4.344 9.687 9.7 0 5.359-4.34 9.699-9.687 9.699zm34.027 0h-9.074c-5.348 0-9.688-4.34-9.688-9.699 0-5.355 4.34-9.699 9.688-9.699h9.074c5.352 0 9.688 4.344 9.688 9.7 0 5.359-4.336 9.699-9.688 9.699zm0 0"/></clipPath><clipPath id="p"><path d="M439 226h316v58H439Zm0 0"/></clipPath><clipPath id="q"><path d="M828.04 226.34H465.61c-14.255 0-25.813 11.57-25.813 25.844v31.77h414.05v-31.77c0-14.274-11.554-25.844-25.808-25.844zm-351.942 42.05h-9.075c-5.351 0-9.687-4.34-9.687-9.699 0-5.355 4.336-9.699 9.687-9.699h9.075c5.351 0 9.687 4.344 9.687 9.7 0 5.359-4.336 9.699-9.687 9.699zm34.035 0h-9.074c-5.352 0-9.688-4.34-9.688-9.699 0-5.355 4.336-9.699 9.688-9.699h9.074c5.347 0 9.687 4.344 9.687 9.7 0 5.359-4.34 9.699-9.687 9.699zm34.027 0h-9.074c-5.348 0-9.688-4.34-9.688-9.699 0-5.355 4.34-9.699 9.688-9.699h9.074c5.352 0 9.688 4.344 9.688 9.7 0 5.359-4.336 9.699-9.688 9.699zm0 0"/></clipPath><clipPath id="r"><path d="M439 226h328v58H439Zm0 0"/></clipPath><clipPath id="s"><path d="M828.04 226.34H465.61c-14.255 0-25.813 11.57-25.813 25.844v31.77h414.05v-31.77c0-14.274-11.554-25.844-25.808-25.844zm-351.942 42.05h-9.075c-5.351 0-9.687-4.34-9.687-9.699 0-5.355 4.336-9.699 9.687-9.699h9.075c5.351 0 9.687 4.344 9.687 9.7 0 5.359-4.336 9.699-9.687 9.699zm34.035 0h-9.074c-5.352 0-9.688-4.34-9.688-9.699 0-5.355 4.336-9.699 9.688-9.699h9.074c5.347 0 9.687 4.344 9.687 9.7 0 5.359-4.34 9.699-9.687 9.699zm34.027 0h-9.074c-5.348 0-9.688-4.34-9.688-9.699 0-5.355 4.34-9.699 9.688-9.699h9.074c5.352 0 9.688 4.344 9.688 9.7 0 5.359-4.336 9.699-9.688 9.699zm0 0"/></clipPath><clipPath id="t"><path d="M439 226h341v58H439Zm0 0"/></clipPath><clipPath id="u"><path d="M828.04 226.34H465.61c-14.255 0-25.813 11.57-25.813 25.844v31.77h414.05v-31.77c0-14.274-11.554-25.844-25.808-25.844zm-351.942 42.05h-9.075c-5.351 0-9.687-4.34-9.687-9.699 0-5.355 4.336-9.699 9.687-9.699h9.075c5.351 0 9.687 4.344 9.687 9.7 0 5.359-4.336 9.699-9.687 9.699zm34.035 0h-9.074c-5.352 0-9.688-4.34-9.688-9.699 0-5.355 4.336-9.699 9.688-9.699h9.074c5.347 0 9.687 4.344 9.687 9.7 0 5.359-4.34 9.699-9.687 9.699zm34.027 0h-9.074c-5.348 0-9.688-4.34-9.688-9.699 0-5.355 4.34-9.699 9.688-9.699h9.074c5.352 0 9.688 4.344 9.688 9.7 0 5.359-4.336 9.699-9.688 9.699zm0 0"/></clipPath><clipPath id="v"><path d="M439 226h353v58H439Zm0 0"/></clipPath><clipPath id="w"><path d="M828.04 226.34H465.61c-14.255 0-25.813 11.57-25.813 25.844v31.77h414.05v-31.77c0-14.274-11.554-25.844-25.808-25.844zm-351.942 42.05h-9.075c-5.351 0-9.687-4.34-9.687-9.699 0-5.355 4.336-9.699 9.687-9.699h9.075c5.351 0 9.687 4.344 9.687 9.7 0 5.359-4.336 9.699-9.687 9.699zm34.035 0h-9.074c-5.352 0-9.688-4.34-9.688-9.699 0-5.355 4.336-9.699 9.688-9.699h9.074c5.347 0 9.687 4.344 9.687 9.7 0 5.359-4.34 9.699-9.687 9.699zm34.027 0h-9.074c-5.348 0-9.688-4.34-9.688-9.699 0-5.355 4.34-9.699 9.688-9.699h9.074c5.352 0 9.688 4.344 9.688 9.7 0 5.359-4.336 9.699-9.688 9.699zm0 0"/></clipPath><clipPath id="x"><path d="M439 226h366v58H439Zm0 0"/></clipPath><clipPath id="y"><path d="M828.04 226.34H465.61c-14.255 0-25.813 11.57-25.813 25.844v31.77h414.05v-31.77c0-14.274-11.554-25.844-25.808-25.844zm-351.942 42.05h-9.075c-5.351 0-9.687-4.34-9.687-9.699 0-5.355 4.336-9.699 9.687-9.699h9.075c5.351 0 9.687 4.344 9.687 9.7 0 5.359-4.336 9.699-9.687 9.699zm34.035 0h-9.074c-5.352 0-9.688-4.34-9.688-9.699 0-5.355 4.336-9.699 9.688-9.699h9.074c5.347 0 9.687 4.344 9.687 9.7 0 5.359-4.34 9.699-9.687 9.699zm34.027 0h-9.074c-5.348 0-9.688-4.34-9.688-9.699 0-5.355 4.34-9.699 9.688-9.699h9.074c5.352 0 9.688 4.344 9.688 9.7 0 5.359-4.336 9.699-9.688 9.699zm0 0"/></clipPath><clipPath id="z"><path d="M439 226h378v58H439Zm0 0"/></clipPath><clipPath id="A"><path d="M828.04 226.34H465.61c-14.255 0-25.813 11.57-25.813 25.844v31.77h414.05v-31.77c0-14.274-11.554-25.844-25.808-25.844zm-351.942 42.05h-9.075c-5.351 0-9.687-4.34-9.687-9.699 0-5.355 4.336-9.699 9.687-9.699h9.075c5.351 0 9.687 4.344 9.687 9.7 0 5.359-4.336 9.699-9.687 9.699zm34.035 0h-9.074c-5.352 0-9.688-4.34-9.688-9.699 0-5.355 4.336-9.699 9.688-9.699h9.074c5.347 0 9.687 4.344 9.687 9.7 0 5.359-4.34 9.699-9.687 9.699zm34.027 0h-9.074c-5.348 0-9.688-4.34-9.688-9.699 0-5.355 4.34-9.699 9.688-9.699h9.074c5.352 0 9.688 4.344 9.688 9.7 0 5.359-4.336 9.699-9.688 9.699zm0 0"/></clipPath><clipPath id="B"><path d="M439 226h391v58H439Zm0 0"/></clipPath><clipPath id="C"><path d="M828.04 226.34H465.61c-14.255 0-25.813 11.57-25.813 25.844v31.77h414.05v-31.77c0-14.274-11.554-25.844-25.808-25.844zm-351.942 42.05h-9.075c-5.351 0-9.687-4.34-9.687-9.699 0-5.355 4.336-9.699 9.687-9.699h9.075c5.351 0 9.687 4.344 9.687 9.7 0 5.359-4.336 9.699-9.687 9.699zm34.035 0h-9.074c-5.352 0-9.688-4.34-9.688-9.699 0-5.355 4.336-9.699 9.688-9.699h9.074c5.347 0 9.687 4.344 9.687 9.7 0 5.359-4.34 9.699-9.687 9.699zm34.027 0h-9.074c-5.348 0-9.688-4.34-9.688-9.699 0-5.355 4.34-9.699 9.688-9.699h9.074c5.352 0 9.688 4.344 9.688 9.7 0 5.359-4.336 9.699-9.688 9.699zm0 0"/></clipPath><clipPath id="D"><path d="M439 226h403v58H439Zm0 0"/></clipPath><clipPath id="E"><path d="M828.04 226.34H465.61c-14.255 0-25.813 11.57-25.813 25.844v31.77h414.05v-31.77c0-14.274-11.554-25.844-25.808-25.844zm-351.942 42.05h-9.075c-5.351 0-9.687-4.34-9.687-9.699 0-5.355 4.336-9.699 9.687-9.699h9.075c5.351 0 9.687 4.344 9.687 9.7 0 5.359-4.336 9.699-9.687 9.699zm34.035 0h-9.074c-5.352 0-9.688-4.34-9.688-9.699 0-5.355 4.336-9.699 9.688-9.699h9.074c5.347 0 9.687 4.344 9.687 9.7 0 5.359-4.34 9.699-9.687 9.699zm34.027 0h-9.074c-5.348 0-9.688-4.34-9.688-9.699 0-5.355 4.34-9.699 9.688-9.699h9.074c5.352 0 9.688 4.344 9.688 9.7 0 5.359-4.336 9.699-9.688 9.699zm0 0"/></clipPath><clipPath id="F"><path d="M439 226h415v58H439Zm0 0"/></clipPath><clipPath id="G"><path d="M828.04 226.34H465.61c-14.255 0-25.813 11.57-25.813 25.844v31.77h414.05v-31.77c0-14.274-11.554-25.844-25.808-25.844zm-351.942 42.05h-9.075c-5.351 0-9.687-4.34-9.687-9.699 0-5.355 4.336-9.699 9.687-9.699h9.075c5.351 0 9.687 4.344 9.687 9.7 0 5.359-4.336 9.699-9.687 9.699zm34.035 0h-9.074c-5.352 0-9.688-4.34-9.688-9.699 0-5.355 4.336-9.699 9.688-9.699h9.074c5.347 0 9.687 4.344 9.687 9.7 0 5.359-4.34 9.699-9.687 9.699zm34.027 0h-9.074c-5.348 0-9.688-4.34-9.688-9.699 0-5.355 4.34-9.699 9.688-9.699h9.074c5.352 0 9.688 4.344 9.688 9.7 0 5.359-4.336 9.699-9.688 9.699zm0 0"/></clipPath><clipPath id="H"><path d="M471.563 345.785H598v22.578H471.562Zm0 0"/></clipPath><clipPath id="I"><path d="M471.563 345.785H610v22.578H471.562Zm0 0"/></clipPath><clipPath id="J"><path d="M471.563 345.785h141.593v22.578H471.563Zm0 0"/></clipPath><clipPath id="K"><path d="M471.563 394.035H598v22.578H471.562Zm0 0"/></clipPath><clipPath id="L"><path d="M471.563 394.035H610v22.578H471.562Zm0 0"/></clipPath><clipPath id="M"><path d="M471.563 394.035h141.593v22.578H471.563Zm0 0"/></clipPath><clipPath id="N"><path d="M471.563 442.29H598v22.577H471.562Zm0 0"/></clipPath><clipPath id="O"><path d="M471.563 442.29H610v22.577H471.562Zm0 0"/></clipPath><clipPath id="P"><path d="M471.563 442.29h141.593v22.577H471.563Zm0 0"/></clipPath><pattern xlink:href="#a" id="Q" patternTransform="matrix(.84946 0 0 .84946 58.536 185.479)"/><pattern xlink:href="#b" id="a" patternTransform="matrix(.84946 0 0 .84946 -115.79 185.485)"/><pattern id="b" width="1063.918" height="357.019" patternTransform="translate(108.202 -413.22)" patternUnits="userSpaceOnUse"><path d="m108.555-56.555 356.313-356.312M115.696-56.555l356.312-356.312M122.836-56.555 479.15-412.867M129.977-56.555l356.312-356.312M137.117-56.555l356.312-356.312M144.257-56.555 500.57-412.867M151.398-56.555 507.71-412.867M158.538-56.555 514.85-412.867M165.679-56.555 521.99-412.867M172.819-56.555 529.13-412.867M179.96-56.555l356.312-356.312M187.1-56.555l356.312-356.312M194.24-56.555l356.312-356.312M201.38-56.555l356.313-356.312M208.52-56.555l356.313-356.312M215.661-56.555l356.313-356.312M222.802-56.555l356.312-356.312M229.942-56.555l356.312-356.312M237.082-56.555l356.313-356.312M244.223-56.555l356.312-356.312M251.363-56.555l356.313-356.312M258.504-56.555l356.312-356.312M265.644-56.555l356.312-356.312M272.784-56.555l356.313-356.312M279.925-56.555l356.312-356.312M287.065-56.555l356.312-356.312M294.206-56.555l356.312-356.312M301.346-56.555l356.312-356.312M308.486-56.555 664.8-412.867M315.627-56.555l356.312-356.312M322.767-56.555 679.08-412.867M329.907-56.555 686.22-412.867M337.048-56.555 693.36-412.867M344.188-56.555l356.313-356.312M351.329-56.555 707.64-412.867M358.469-56.555l356.312-356.312M365.61-56.555l356.312-356.312M372.75-56.555l356.312-356.312M379.89-56.555l356.313-356.312M387.03-56.555l356.313-356.312M394.171-56.555l356.312-356.312M401.311-56.555l356.313-356.312M408.452-56.555l356.312-356.312M415.592-56.555l356.312-356.312M422.733-56.555l356.312-356.312M429.873-56.555l356.312-356.312M437.013-56.555l356.313-356.312M444.154-56.555l356.312-356.312M451.294-56.555l356.312-356.312M458.434-56.555l356.313-356.312M465.575-56.555l356.312-356.312M472.715-56.555l356.313-356.312M479.856-56.555l356.312-356.312M486.996-56.555l356.312-356.312M494.136-56.555 850.45-412.867M501.277-56.555l356.312-356.312M508.417-56.555 864.73-412.867M515.558-56.555 871.87-412.867M522.698-56.555 879.01-412.867M529.838-56.555l356.313-356.312M536.979-56.555 893.29-412.867M544.12-56.555 900.43-412.867M551.26-56.555l356.312-356.312M558.4-56.555l356.312-356.312M565.54-56.555l356.313-356.312M572.68-56.555l356.313-356.312M579.821-56.555l356.312-356.312M586.961-56.555l356.313-356.312M594.102-56.555l356.312-356.312M601.242-56.555l356.313-356.312M608.383-56.555l356.312-356.312M615.523-56.555l356.312-356.312M622.663-56.555l356.313-356.312M629.804-56.555l356.312-356.312M636.944-56.555l356.313-356.312M644.085-56.555l356.312-356.312M651.225-56.555l356.312-356.312M658.365-56.555l356.313-356.312M665.506-56.555l356.312-356.312M672.646-56.555l356.313-356.312M679.787-56.555l356.312-356.312M686.927-56.555l356.312-356.312M694.067-56.555l356.313-356.312M701.208-56.555l356.312-356.312M708.348-56.555l356.312-356.312M715.488-56.555l356.313-356.312M722.629-56.555l356.312-356.312M729.77-56.555l356.312-356.312M736.91-56.555l356.312-356.312M744.05-56.555l356.312-356.312M751.19-56.555l356.313-356.312M758.33-56.555l356.313-356.312M765.471-56.555l356.313-356.312M772.612-56.555l356.312-356.312M779.752-56.555l356.312-356.312M786.892-56.555l356.313-356.312M794.033-56.555l356.312-356.312M801.173-56.555l356.313-356.312M808.314-56.555l356.312-356.312M815.454-56.555l356.312-356.312" style="fill:none;stroke:#90d1f4;stroke-width:1px;stroke-linecap:butt;stroke-linejoin:miter;stroke-opacity:1" transform="translate(-108.202 413.22)"/></pattern><g id="c"><path d="M311.238 130.316 444.779-3.225M311.238 130.316 444.779-3.225M315.238 130.316 448.779-3.225" style="fill:none;stroke:#49a5f3;stroke-width:1px;stroke-linecap:butt;stroke-linejoin:miter;stroke-opacity:1"/></g></defs><path d="m499.72 338.426-14.868 14.867c-2.897-1.812-6.15-3.583-9.115-5.752a5.01 5.01 0 0 0-6.672-.165 58.92 58.92 0 0 1-19.562 7.853 2.073 2.073 0 0 0-1.84 1.908c-.947 4.352-2.004 8.676-3.034 13.055h-20.88c-1.03-4.38-2.1-8.69-3.02-13.055a2.224 2.224 0 0 0-2.004-1.977 65.4 65.4 0 0 1-21.402-8.937 2.004 2.004 0 0 0-2.526 0c-3.761 2.403-7.578 4.736-11.216 7.001l-14.88-14.908c2.25-3.624 4.612-7.482 7.056-11.298a1.894 1.894 0 0 0 0-2.375 67.267 67.267 0 0 1-9.047-21.731 1.853 1.853 0 0 0-1.661-1.689c-4.407-.96-8.8-2.018-13.248-3.061v-20.84c4.366-1.029 8.745-2.086 13.152-3.047a1.99 1.99 0 0 0 1.784-1.77 66.388 66.388 0 0 1 8.965-21.58 2.004 2.004 0 0 0 0-2.527c-2.43-3.789-4.791-7.646-7.098-11.366l14.868-14.827c3.61 2.238 7.372 4.517 11.064 6.864a2.444 2.444 0 0 0 3.103 0 64.082 64.082 0 0 1 20.811-8.662 2.54 2.54 0 0 0 2.32-2.265c.851-4.27 1.936-8.484 2.952-12.794h20.949l2.745 11.627a9.61 9.61 0 0 1 .316 1.455c.082 1.208.741 1.606 1.88 1.867a66.114 66.114 0 0 1 21.43 8.923 2.087 2.087 0 0 0 2.663 0c3.761-2.402 7.564-4.736 11.23-7l14.853 14.853c-2.197 3.514-4.434 7.248-6.864 10.872a2.65 2.65 0 0 0 0 3.391 65.372 65.372 0 0 1 8.745 21.14 2.018 2.018 0 0 0 1.784 1.786c4.352.96 8.69 2.004 13.138 3.033v20.935c-4.42 1.03-8.814 2.073-13.206 3.062a1.908 1.908 0 0 0-1.703 1.66 66.594 66.594 0 0 1-9.033 21.732 1.922 1.922 0 0 0 0 2.389c2.416 3.871 4.778 7.66 7.07 11.353zm-108.355-50.643a42.831 42.831 0 1 0 42.872-42.844 42.804 42.804 0 0 0-42.872 42.844z" class="cls-5" style="fill:url(#a);fill-opacity:1;stroke:#64b5f6;stroke-width:3.09567px;stroke-miterlimit:10;stroke-opacity:1"/><path d="M408.406 61.093c-2.413.031-4.74.17-7.14.504-3.963.568-7.98 1.603-11.32 3.894-1.791 1.263-3.435 2.967-4.047 5.122-.273 1.23-.094 2.502-.146 3.75v12.602h26.23v5.203c-13.845.007-27.691-.01-41.537.011-3.237.072-6.382 1.519-8.615 3.85-3.113 3.108-4.74 7.37-5.601 11.61-.484 2.367-.737 4.878-.846 7.225a67.523 67.523 0 0 0 0 5.786c.348 7.623 2.138 16.6 9.157 20.99 2.116 1.26 4.603 1.848 7.058 1.73l8.85.006c.012-4.442-.022-8.885.018-13.327.179-5.308 2.82-10.457 7.008-13.72 3.357-2.675 7.676-4.068 11.96-3.939 7.419-.009 14.837.018 22.255-.014 3.932-.143 7.675-2.481 9.562-5.929 1.12-1.966 1.554-4.257 1.458-6.504-.007-9.48.014-18.96-.01-28.439-.143-1.97-1.433-3.64-2.831-4.94-2.777-2.476-6.399-3.737-9.983-4.502-2.27-.48-4.778-.758-7.099-.88a69.107 69.107 0 0 0-4.38-.089z" style="color:#000;fill:#fff;stroke-width:1.83643" transform="matrix(.54011 0 0 .54011 212.623 225.125)"/><path d="m409.324 60.162-.93.012c-2.44.032-4.81.174-7.255.514h-.004c-4.031.577-8.193 1.634-11.71 4.046l-.003.004-.004.002c-1.893 1.335-3.708 3.174-4.403 5.623l-.008.026-.004.025c-.32 1.444-.12 2.777-.168 3.912v13.557h26.229v3.367c-13.54.005-27.078-.008-40.62.012h-.02c-3.494.077-6.852 1.626-9.251 4.129-3.29 3.289-4.964 7.727-5.844 12.066-.497 2.43-.752 4.984-.863 7.365v.002a68.323 68.323 0 0 0 0 5.866v.001c.353 7.734 2.151 17.076 9.588 21.727l.008.006.008.006c2.28 1.357 4.94 1.983 7.572 1.857l-.043.002 9.766.006.002-.916c.011-4.44-.023-8.874.017-13.298.17-5.024 2.689-9.936 6.654-13.026l.004-.004.004-.004c3.179-2.533 7.294-3.86 11.362-3.738H399.437c7.415-.009 14.833.018 22.256-.014H421.722c4.274-.155 8.283-2.663 10.332-6.404 1.217-2.142 1.674-4.6 1.572-6.986l.002.037c-.007-9.478.015-18.958-.01-28.44v-.033l-.004-.031c-.169-2.331-1.641-4.172-3.12-5.547l-.009-.006-.006-.006c-2.957-2.636-6.74-3.933-10.402-4.715h-.002c-2.333-.493-4.88-.776-7.24-.9a67.807 67.807 0 0 0-3.512-.07zm-.937 1.85h.029c1.444-.015 2.886.009 4.322.086 2.282.12 4.75.397 6.955.863 3.504.747 6.961 1.972 9.557 4.283 1.31 1.22 2.41 2.711 2.531 4.315.024 9.458.005 18.92.012 28.384v.04c.09 2.102-.321 4.22-1.34 6.01l-.002.007-.004.006c-1.725 3.152-5.2 5.323-8.79 5.453-7.395.032-14.792.005-22.194.014-4.5-.136-9.018 1.319-12.553 4.133l-.002.002c-.002 0-.004.002-.006.004-4.405 3.436-7.165 8.817-7.354 14.406v.023c-.037 4.147-.01 8.286-.015 12.418l-7.955-.008-.024.002c-2.276.11-4.584-.439-6.535-1.597-6.593-4.13-8.376-12.737-8.719-20.246v-.002a66.7 66.7 0 0 1 0-5.701v-.002c.108-2.312.357-4.779.829-7.08v-.003c.839-4.136 2.422-8.219 5.351-11.142l.008-.008.006-.008c2.067-2.158 4.996-3.5 7.973-3.566 13.837-.02 27.677-.006 41.517-.012h.918v-7.04h-26.23V74.364c.05-1.332-.094-2.52.121-3.52.533-1.852 1.997-3.412 3.68-4.599l.002-.002c3.16-2.164 7.028-3.178 10.916-3.736 2.344-.326 4.622-.462 6.996-.494z" style="color:#000;fill:#4ea8f1" transform="matrix(.54011 0 0 .54011 212.623 225.125)"/><path d="M106.961 131.174c-1.663.03-3.359.185-4.92.8-.768.316-1.526.764-2.005 1.462-.193.273-.27.609-.242.94.005 1.406.002 2.812.002 4.218h9.28v3.573c-5.214.003-10.428-.009-15.642.01-1.074.049-2.065.659-2.71 1.502-.765.963-1.168 2.157-1.406 3.35-.017.102-.054.282-.073.415-.07.43-.123.902-.155 1.313-.092 1.27-.08 2.585.064 3.866.18 1.498.551 3.033 1.462 4.266.598.808 1.467 1.466 2.481 1.614.647.09 1.302.026 1.953.045l1.138.001c.007-1.395-.022-2.79.024-4.184.18-2.395 1.62-4.654 3.72-5.822 1.229-.698 2.658-1.014 4.066-.955 2.589-.006 5.178.015 7.767-.014 1.372-.115 2.599-1.214 2.845-2.573.122-.693.045-1.399.065-2.098-.002-2.966.007-5.933-.009-8.898-.1-.58-.56-1.011-1.004-1.355-1.082-.789-2.418-1.111-3.721-1.304a17.58 17.58 0 0 0-1.335-.132c-.19-.01-.371-.022-.54-.026a26.925 26.925 0 0 0-1.104-.014z" style="fill:#4ea8f1;fill-opacity:1;stroke-width:.649654" transform="translate(269.93 59.17) scale(1.52678)"/><path d="M102.678 134.307a1.324 1.324 0 1 0 0 2.648 1.324 1.324 0 0 0 0-2.648z" style="stroke-width:.143379" transform="translate(269.93 59.17) scale(1.52678)"/><path d="M396.35 81.855a5.708 5.708 0 0 1-5.707-5.711 5.708 5.708 0 0 1 5.705-5.712 5.709 5.709 0 0 1 5.704 5.712 5.714 5.714 0 0 1-5.703 5.71z" style="color:#000;fill:#fff;stroke-width:1.83643" transform="matrix(.54011 0 0 .54011 212.623 225.125)"/><path d="M396.348 69.514c-3.648 0-6.623 2.98-6.623 6.63s2.977 6.632 6.625 6.63c3.644-.004 6.615-2.983 6.62-6.63 0-3.649-2.975-6.63-6.622-6.63zm0 1.836a4.777 4.777 0 0 1 4.785 4.793 4.781 4.781 0 0 1-4.783 4.793 4.776 4.776 0 0 1-4.79-4.791 4.777 4.777 0 0 1 4.788-4.795z" style="color:#000;fill:#4ea8f1" transform="matrix(.54011 0 0 .54011 212.623 225.125)"/><path fill="#4ea8f1" d="M107.944 169.58c-6.479 0-8.155-2.374-8.575-3.394a2.206 2.206 0 0 1-.164-.84v-10.26a4.524 4.524 0 0 1 4.516-4.521h7.906a6.077 6.077 0 0 0 6.066-6.075v-4.54a.348.348 0 0 1 .35-.347l3.485.003a4.797 4.797 0 0 1 3.355 1.362c1.703 1.585 2.566 4.319 2.566 8.127 0 3.808-.863 6.542-2.566 8.127-.9.88-2.11 1.37-3.37 1.361h-14.11v.976h8.932c.192 0 .347.156.347.348v5.44a2.19 2.19 0 0 1-.164.84c-.42 1.02-2.095 3.393-8.574 3.393zm-4.223-18.32a3.828 3.828 0 0 0-3.822 3.826v10.26c0 .197.038.392.112.576.367.89 1.873 2.962 7.933 2.962s7.566-2.072 7.933-2.962c.075-.184.112-.379.111-.576v-5.092h-8.931a.347.347 0 0 1-.347-.348v-1.67c0-.192.155-.348.347-.348h14.482a4.18 4.18 0 0 0 2.885-1.189c1.547-1.45 2.33-4.01 2.33-7.604 0-3.595-.783-6.154-2.33-7.605a4.17 4.17 0 0 0-2.862-1.19l-.023.001h-3.152v4.19a6.773 6.773 0 0 1-6.76 6.77zm8.78 14.58a2.019 2.019 0 0 1-2.017-2.02 2.02 2.02 0 1 1 4.035 0 2.021 2.021 0 0 1-2.017 2.02zm0-3.345a1.324 1.324 0 1 0 .003 2.653 1.324 1.324 0 0 0-.002-2.653zm0 0" style="stroke-width:.143379" transform="translate(269.93 59.17) scale(1.52678)"/><path fill="#90d1f4" d="M93.527 159.85a4.88 4.88 0 0 1-3.23-1.365c-1.702-1.585-2.566-4.32-2.566-8.128s.864-6.542 2.566-8.128a4.79 4.79 0 0 1 3.37-1.36l14.11-.001v-.975h-8.933a.348.348 0 0 1-.347-.347v-5.44a2.186 2.186 0 0 1 .164-.84c.42-1.02 2.096-3.393 8.575-3.393 6.479 0 8.154 2.373 8.574 3.393.11.267.166.552.165.84v10.26a4.523 4.523 0 0 1-4.516 4.522h-7.905a6.078 6.078 0 0 0-6.067 6.075v4.54c0 .092-.036.18-.102.246a.599.599 0 0 1-.247.1l-3.497-.002c-.007.001-.046.003-.114.003zm.038-18.288a4.234 4.234 0 0 0-2.809 1.191c-1.547 1.45-2.33 4.008-2.33 7.604s.783 6.155 2.33 7.605a4.166 4.166 0 0 0 2.86 1.19h3.177v-4.19c.004-3.737 3.028-6.766 6.76-6.77h7.906a3.83 3.83 0 0 0 3.822-3.827v-10.259c0-.197-.038-.393-.112-.575-.367-.891-1.873-2.963-7.933-2.963s-7.566 2.072-7.933 2.963a1.49 1.49 0 0 0-.112.575v5.092h8.932c.192 0 .348.156.348.347v1.671a.348.348 0 0 1-.348.348H93.641c-.005 0-.031-.002-.076-.002zm9.113-3.91a2.02 2.02 0 0 1-2.018-2.02 2.02 2.02 0 1 1 4.036 0 2.022 2.022 0 0 1-2.018 2.02zm0-3.345a1.324 1.324 0 1 0 0 2.648 1.324 1.324 0 0 0 0-2.648zm0 0" style="fill:none;stroke-width:.143379" transform="translate(269.93 59.17) scale(1.52678)"/><g clip-path="url(#d)" transform="matrix(.55948 0 0 .55948 -198.085 -81.686)"><g clip-path="url(#e)"><path fill="#90d1f4" d="M-70.086 1362.586 850.176 441.09l2.39 2.398-920.257 921.496zm0 0"/></g></g><g clip-path="url(#f)" transform="matrix(.55948 0 0 .55948 -198.085 -81.686)"><g clip-path="url(#g)"><path fill="#90d1f4" d="m-57.602 1362.59 920.262-921.5 2.39 2.394-920.26 921.5zm0 0"/></g></g><g clip-path="url(#h)" transform="matrix(.55948 0 0 .55948 -198.085 -81.686)"><g fill="#90d1f4" clip-path="url(#i)"><path d="m-45.117 1362.59 920.262-921.5 2.394 2.394-920.262 921.5zM-32.633 1362.586 887.63 441.09l2.39 2.398-920.257 921.496zM-20.145 1362.586 900.113 441.09l2.395 2.398-920.262 921.496zM-7.664 1362.59l920.262-921.5 2.394 2.394-920.262 921.5zM4.824 1362.59l920.262-921.5 2.39 2.394-920.261 921.5ZM17.309 1362.586 937.566 441.09l2.395 2.398-920.262 921.496zm0 0"/></g></g><g clip-path="url(#j)" transform="matrix(.55948 0 0 .55948 -198.085 -81.686)"><g clip-path="url(#k)"><path fill="#90d1f4" d="M-205.871 900.473 714.387-21.023l2.394 2.398-920.261 921.496zm0 0"/></g></g><g clip-path="url(#l)" transform="matrix(.55948 0 0 .55948 -198.085 -81.686)"><g clip-path="url(#m)"><path fill="#90d1f4" d="M-193.387 900.473 726.871-21.023l2.39 2.398-920.257 921.496zm0 0"/></g></g><g clip-path="url(#n)" transform="matrix(.55948 0 0 .55948 -198.085 -81.686)"><g clip-path="url(#o)"><path fill="#90d1f4" d="M-180.902 900.473 739.355-21.023l2.395 2.398-920.258 921.496Zm0 0"/></g></g><g clip-path="url(#p)" transform="matrix(.55948 0 0 .55948 -198.085 -81.686)"><g clip-path="url(#q)"><path fill="#90d1f4" d="M-168.418 900.473 751.84-21.023l2.394 2.398-920.261 921.496zm0 0"/></g></g><g clip-path="url(#r)" transform="matrix(.55948 0 0 .55948 -198.085 -81.686)"><g clip-path="url(#s)"><path fill="#90d1f4" d="M-155.934 900.473 764.324-21.023l2.395 2.398-920.258 921.496zm0 0"/></g></g><g clip-path="url(#t)" transform="matrix(.55948 0 0 .55948 -198.085 -81.686)"><g clip-path="url(#u)"><path fill="#90d1f4" d="M-143.45 900.473 776.81-21.023l2.394 2.398-920.258 921.496zm0 0"/></g></g><g clip-path="url(#v)" transform="matrix(.55948 0 0 .55948 -198.085 -81.686)"><g clip-path="url(#w)"><path fill="#90d1f4" d="M-130.96 900.473 789.296-21.023l2.39 2.398-920.257 921.496Zm0 0"/></g></g><g clip-path="url(#x)" transform="matrix(.55948 0 0 .55948 -198.085 -81.686)"><g clip-path="url(#y)"><path fill="#90d1f4" d="M-118.48 900.473 801.78-21.023l2.39 2.398-920.257 921.496zm0 0"/></g></g><g clip-path="url(#z)" transform="matrix(.55948 0 0 .55948 -198.085 -81.686)"><g clip-path="url(#A)"><path fill="#90d1f4" d="M-105.992 900.473 814.266-21.023l2.394 2.394-920.262 921.5zm0 0"/></g></g><g clip-path="url(#B)" transform="matrix(.55948 0 0 .55948 -198.085 -81.686)"><g clip-path="url(#C)"><path fill="#90d1f4" d="M-93.508 900.473 826.75-21.023l2.39 2.398-920.257 921.492Zm0 0"/></g></g><g clip-path="url(#D)" transform="matrix(.55948 0 0 .55948 -198.085 -81.686)"><g clip-path="url(#E)"><path fill="#90d1f4" d="M-80.973 900.473 839.285-21.023l2.395 2.398-920.262 921.496Zm0 0"/></g></g><g clip-path="url(#F)" transform="matrix(.55948 0 0 .55948 -198.085 -81.686)"><g fill="#90d1f4" clip-path="url(#G)"><path d="M-68.488 900.473 851.77-21.023l2.394 2.398-920.258 921.496ZM-56.004 900.473 864.254-21.023l2.394 2.398-920.257 921.492ZM-43.52 900.473 876.738-21.023l2.395 2.398-920.258 921.496ZM-31.035 900.473 889.223-21.023l2.394 2.398L-28.64 902.871ZM-18.55 900.473 901.71-21.023l2.392 2.398-920.258 921.496ZM-6.066 900.473 914.19-21.023l2.395 2.398L-3.672 902.871ZM6.422 900.473 926.68-21.023l2.39 2.398L8.812 902.871ZM18.902 900.473 939.164-21.023l2.39 2.398L21.298 902.871ZM31.39 900.473 951.649-21.023l2.395 2.398L33.781 902.871ZM43.875 900.473 964.133-21.023l2.39 2.398L46.27 902.871ZM56.094 900.473 976.352-21.023l2.394 2.398L58.484 902.871ZM68.578 900.473 988.84-21.023l2.39 2.394-920.257 921.5ZM81.063 900.473 1001.32-21.023l2.395 2.398L83.457 902.867zM93.55 900.473 1013.81-21.023l2.39 2.398L95.941 902.867ZM106.031 900.473l920.262-921.496 2.39 2.398-920.257 921.496ZM118.52 900.473l920.257-921.496 2.395 2.398L120.91 902.871zM131.004 900.473l920.258-921.496 2.39 2.398-920.257 921.496zM143.488 900.473l920.258-921.496 2.395 2.398-920.258 921.496zM155.973 900.473 1076.23-21.023l2.395 2.394-920.262 921.5zM168.457 900.473l920.258-921.496 2.394 2.398-920.257 921.496zM180.941 900.473 1101.2-21.023l2.395 2.398-920.258 921.496zM192.3 900.473 1112.56-21.023l2.394 2.394-920.262 921.5zM204.785 900.473l920.258-921.496 2.394 2.394-920.257 921.5zM217.27 900.473l920.257-921.496 2.395 2.398-920.258 921.492zm0 0"/></g></g><path fill="#4ea8f1" d="M207.645 191.343H65.639a.993.993 0 0 1 0-1.986h142.006a.992.992 0 0 1 0 1.986zM147.741 244.745h-33.316a.992.992 0 0 1-.97-.788.996.996 0 0 1 .568-1.113l22.176-9.841v-14.468a.993.993 0 1 1 1.984 0v15.114c0 .394-.232.75-.59.909l-18.482 8.201h28.63a.992.992 0 1 1 0 1.986zM189.61 244.745h-33.317a.993.993 0 0 1 0-1.986h28.632l-18.483-8.201a.994.994 0 0 1-.59-.909v-15.114a.993.993 0 1 1 1.984 0v14.468l22.176 9.841a.992.992 0 0 1-.4 1.9zM80.507 92.942H76.79a.993.993 0 0 1 0-1.987h3.717c.548 0 .991.445.991.994a.992.992 0 0 1-.991.993zM94.447 92.942H90.73a.992.992 0 0 1-.992-.993c0-.55.443-.994.992-.994h3.717a.993.993 0 0 1 0 1.987zM108.383 92.942h-3.716a.993.993 0 0 1 0-1.987h3.716c.55 0 .992.445.992.994a.992.992 0 0 1-.992.993zm0 0" style="stroke-width:.409576" transform="matrix(1.366 0 0 1.366 -41.69 -62.552)"/><path fill="#90d1f4" d="M233.17 210.23a3.482 3.482 0 0 1-2.48-1.026l-20.853-20.88a3.513 3.513 0 0 1 0-4.965l7.022-7.031a3.584 3.584 0 0 1 4.956 0l20.854 20.882a3.514 3.514 0 0 1 0 4.963l-7.022 7.031a3.48 3.48 0 0 1-2.477 1.026zm-13.831-32.944c-.405 0-.792.16-1.077.446l-7.022 7.032a1.523 1.523 0 0 0 0 2.155l20.852 20.88a1.564 1.564 0 0 0 2.153 0l7.02-7.031a1.522 1.522 0 0 0 0-2.154l-20.851-20.882a1.51 1.51 0 0 0-1.075-.446zm0 0" style="stroke-width:.409576" transform="matrix(1.366 0 0 1.366 -41.69 -62.552)"/><path fill="#4ea8f1" d="M209.022 181.849a.987.987 0 0 1-.7-.291l-6.603-6.613a.993.993 0 0 1 1.402-1.404l6.604 6.612a.996.996 0 0 1 .215 1.083.992.992 0 0 1-.917.613zM214.358 176.507a.984.984 0 0 1-.7-.291l-6.605-6.613a.993.993 0 0 1 1.403-1.402l6.603 6.612a.993.993 0 0 1-.701 1.694zM180.592 179.163c-14.522 0-27.234-9.77-30.992-23.815-3.758-14.047 2.376-28.869 14.953-36.139 12.578-7.268 28.464-5.172 38.73 5.114a32.151 32.151 0 0 1 6.963 35.015c-4.969 12.008-16.674 19.833-29.654 19.825zm0-62.251c-14.356.01-26.704 10.174-29.496 24.274-2.79 14.1 4.753 28.21 18.02 33.703 13.265 5.493 28.558.837 36.527-11.119 7.968-11.956 6.394-27.883-3.763-38.043a29.989 29.989 0 0 0-21.288-8.814zm0 0" style="stroke-width:.409576" transform="matrix(1.366 0 0 1.366 -41.69 -62.552)"/><path fill="#4ea8f1" d="M180.592 171.456c-11.63-.008-21.636-8.241-23.898-19.664-2.26-11.422 3.85-22.855 14.598-27.306 10.746-4.451 23.136-.68 29.593 9.006 6.456 9.687 5.18 22.59-3.048 30.822a24.3 24.3 0 0 1-17.245 7.142zm0-46.837c-10.684.008-19.874 7.572-21.95 18.066-2.079 10.492 3.535 20.995 13.408 25.083 9.873 4.088 21.255.623 27.186-8.276 5.93-8.897 4.758-20.753-2.8-28.312a22.325 22.325 0 0 0-15.844-6.561zm0 0" style="stroke-width:.409576" transform="matrix(1.366 0 0 1.366 -41.69 -62.552)"/><path fill="#90d1f4" d="M136.643 137.858H78.649a.993.993 0 0 1-.992-.994v-9.246c0-.548.445-.993.992-.993h57.994c.547 0 .991.445.991.993v9.246a.993.993 0 0 1-.991.994zM79.64 135.87h56.01v-7.26H79.64ZM136.643 157.622H78.649a.993.993 0 0 1-.992-.994v-9.246c0-.549.445-.993.992-.993h57.994c.547 0 .991.444.991.993v9.246a.993.993 0 0 1-.991.994zm-57.002-1.986h56.01v-7.262H79.64ZM136.643 177.385H78.649a.993.993 0 0 1-.992-.993v-9.248c0-.549.445-.993.992-.993h57.994c.547 0 .991.444.991.993v9.248a.993.993 0 0 1-.991.993zM79.64 175.4h56.01v-7.264H79.64Zm0 0" style="stroke-width:.409576" transform="matrix(1.366 0 0 1.366 -41.69 -62.552)"/><path fill="#4ea8f1" d="M101.067 115.717H78.649a.993.993 0 0 1 0-1.987h22.418c.549 0 .992.444.992.993a.992.992 0 0 1-.992.994zm0 0" style="stroke-width:.409576" transform="matrix(1.366 0 0 1.366 -41.69 -62.552)"/><g fill="#4ea8f1"><path d="M180.592 163.834a.998.998 0 0 1-.787-.386l-14.69-19.085a.993.993 0 0 1-.056-1.131l5.308-8.537a.995.995 0 0 1 .843-.467h18.765c.343 0 .661.176.844.467l5.307 8.537a.996.996 0 0 1-.056 1.131l-14.69 19.085a.998.998 0 0 1-.788.386zm-13.484-20.138 13.484 17.517 13.486-17.517-4.653-7.483h-17.664zm0 0" style="stroke-width:.409576" transform="matrix(1.366 0 0 1.366 -41.69 -62.552)"/><path d="M195.282 144.75h-29.38a.992.992 0 0 1-.992-.993c0-.549.443-.994.992-.994h29.38c.55 0 .992.445.992.994a.992.992 0 0 1-.992.993zm0 0" style="stroke-width:.409576" transform="matrix(1.366 0 0 1.366 -41.69 -62.552)"/><path d="M180.592 163.834a.991.991 0 0 1-.95-.709l-5.685-19.085a.996.996 0 0 1 .018-.618l3.057-8.537a.991.991 0 1 1 1.867.67l-2.947 8.232 5.592 18.772a.995.995 0 0 1-.952 1.275zm0 0" style="stroke-width:.409576" transform="matrix(1.366 0 0 1.366 -41.69 -62.552)"/><path d="M180.592 163.834a.994.994 0 0 1-.95-1.277l5.588-18.772-2.945-8.23a.994.994 0 0 1 .598-1.27.99.99 0 0 1 1.269.599l3.057 8.537a.99.99 0 0 1 .018.619l-5.683 19.085a.994.994 0 0 1-.952.709zm0 0" style="stroke-width:.409576" transform="matrix(1.366 0 0 1.366 -41.69 -62.552)"/></g><g clip-path="url(#H)" transform="matrix(.55948 0 0 .55948 -198.085 -81.686)"><path fill="#90d1f4" d="m-325.223 1162.602 920.254-921.497 2.395 2.399-920.258 921.492zm0 0"/></g><g clip-path="url(#I)" transform="matrix(.55948 0 0 .55948 -198.085 -81.686)"><path fill="#90d1f4" d="M-312.742 1162.602 607.52 241.105l2.39 2.395-920.258 921.5Zm0 0"/></g><g fill="#90d1f4" clip-path="url(#J)" transform="matrix(.55948 0 0 .55948 -198.085 -81.686)"><path d="m-300.254 1162.602 920.258-921.497 2.394 2.395-920.261 921.5ZM-287.77 1162.602l920.258-921.497 2.39 2.399-920.257 921.492zM-275.285 1162.602l920.258-921.497 2.394 2.395-920.258 921.496zM-262.805 1162.602l920.262-921.497 2.395 2.395L-260.41 1165ZM-250.316 1162.602l920.261-921.497 2.39 2.395-920.257 921.5ZM-237.832 1162.602l920.258-921.497 2.394 2.399-920.258 921.492zM-225.348 1162.602 694.91 241.105l2.395 2.399-920.258 921.492zM-212.863 1162.602l920.261-921.497 2.391 2.395-920.258 921.496zM-200.379 1162.602l920.262-921.497 2.394 2.395-920.261 921.496zm0 0"/></g><g clip-path="url(#K)" transform="matrix(.55948 0 0 .55948 -198.085 -81.686)"><path fill="#90d1f4" d="M-325.223 1210.855 595.031 289.36l2.395 2.399-920.258 921.492zm0 0"/></g><g clip-path="url(#L)" transform="matrix(.55948 0 0 .55948 -198.085 -81.686)"><path fill="#90d1f4" d="M-312.742 1210.855 607.52 289.36l2.39 2.395-920.258 921.5zm0 0"/></g><g fill="#90d1f4" clip-path="url(#M)" transform="matrix(.55948 0 0 .55948 -198.085 -81.686)"><path d="M-300.258 1210.855 620.004 289.36l2.394 2.395-920.261 921.5zM-287.77 1210.855 632.484 289.36l2.395 2.399-920.258 921.492zM-275.285 1210.855 644.973 289.36l2.394 2.399-920.258 921.492zM-262.8 1210.855 657.456 289.36l2.395 2.395-920.262 921.5zM-250.316 1210.855 669.94 289.36l2.395 2.395-920.258 921.5zM-237.832 1210.855 682.426 289.36l2.394 2.399-920.258 921.492ZM-225.344 1210.855 694.91 289.36l2.395 2.399-920.258 921.492zM-212.863 1210.855 707.398 289.36l2.391 2.395-920.258 921.5zM-200.379 1210.855 719.883 289.36l2.394 2.395-920.261 921.5zm0 0"/></g><g clip-path="url(#N)" transform="matrix(.55948 0 0 .55948 -198.085 -81.686)"><path fill="#90d1f4" d="m-325.227 1259.11 920.262-921.5 2.39 2.398-920.257 921.496zm0 0"/></g><g clip-path="url(#O)" transform="matrix(.55948 0 0 .55948 -198.085 -81.686)"><path fill="#90d1f4" d="m-312.742 1259.11 920.262-921.5 2.394 2.394-920.266 921.5zm0 0"/></g><g fill="#90d1f4" clip-path="url(#P)" transform="matrix(.55948 0 0 .55948 -198.085 -81.686)"><path d="m-300.258 1259.11 920.262-921.5 2.394 2.394-920.261 921.5zM-287.773 1259.11l920.261-921.5 2.39 2.398-920.257 921.496zM-275.285 1259.11l920.258-921.5 2.394 2.398-920.262 921.496zM-262.805 1259.11l920.262-921.5 2.395 2.394-920.262 921.5zM-250.316 1259.11l920.261-921.5 2.39 2.394-920.26 921.5zM-237.832 1259.11l920.258-921.5 2.394 2.398-920.261 921.496zM-225.348 1259.11l920.262-921.5 2.39 2.398-920.257 921.496zM-212.863 1259.11l920.261-921.5 2.391 2.398-920.262 921.496zM-200.379 1259.11l920.262-921.5 2.394 2.398-920.261 921.496zm0 0"/></g><path fill="#4ea8f1" d="M224.654 215h-68.361a.993.993 0 0 1 0-1.986h68.36a9.47 9.47 0 0 0 4.392-1.064.99.99 0 0 1 1.336.425.995.995 0 0 1-.425 1.34 11.578 11.578 0 0 1-5.302 1.286zM235.224 186.58a.993.993 0 0 1-.992-.994V106.4a.993.993 0 1 1 1.984 0v79.186a.992.992 0 0 1-.992.994zM147.741 215h-71.53c-6.384-.007-11.556-5.186-11.564-11.578V106.4a.993.993 0 1 1 1.984 0v97.022c.006 5.296 4.29 9.587 9.58 9.592h71.53a.993.993 0 0 1 0 1.987zm0 0" style="stroke-width:.409576" transform="matrix(1.366 0 0 1.366 -41.69 -62.552)"/><path fill="#90d1f4" d="M235.224 103.289H65.64a.993.993 0 0 1-.992-.994V89.281c.007-6.391 5.18-11.57 11.564-11.578h148.443c6.382.008 11.554 5.187 11.562 11.578v13.014a.994.994 0 0 1-.992.994zm-168.592-1.987h167.6v-12.02c-.005-5.296-4.29-9.587-9.578-9.592H76.21c-5.288.005-9.574 4.296-9.58 9.591zm0 0" style="stroke-width:.409576" transform="matrix(1.366 0 0 1.366 -41.69 -62.552)"/><path d="M166.269 221.566v66.606H344.66" style="fill:none;stroke:#90d1f4;stroke-width:2.11666667;stroke-linecap:butt;stroke-linejoin:miter;stroke-dasharray:16.93333333,16.93333333;stroke-dashoffset:0;stroke-opacity:1"/><path d="M432.94 201.955v-66.606h122.036" style="fill:none;stroke:#90d1f4;stroke-width:2.11667;stroke-linecap:butt;stroke-linejoin:miter;stroke-dasharray:16.9333,16.9333;stroke-dashoffset:0;stroke-opacity:1"/><path d="M588.376 43.59c-14.643.015-26.509 11.897-26.525 26.558v128.1c.017 14.661 11.882 26.545 26.525 26.56h127.928c14.642-.017 26.508-11.899 26.524-26.56v-128.1c-.017-14.661-11.882-26.542-26.524-26.559Z" class="UnoptimicedTransforms" style="fill:#4ea8f1;fill-opacity:1;stroke-width:.391941" transform="matrix(.9949 0 0 1 3.393 .523)"/><path d="M588.376 45.49h127.928c13.593.015 24.61 11.046 24.626 24.658v.25H563.75v-.25c.016-13.612 11.032-24.643 24.626-24.658z" style="fill:#fff;fill-opacity:1;stroke:none;stroke-width:1.32291667;stroke-miterlimit:10;stroke-opacity:1;stroke-dasharray:none" transform="translate(0 -.006)"/><path d="M713.957 46.014c-42.678.027-85.356-.011-128.033.142-9.901.944-18.88 8.669-20.91 18.467-.326 3.156 3.014 5.84 6.039 5.27l169.705-.03c-.556-8.172-4.998-16.148-12.08-20.405-4.379-2.7-9.635-3.624-14.721-3.444z" style="fill:url(#Q);fill-opacity:1;stroke:none;stroke-width:3.09567px;stroke-miterlimit:10;stroke-opacity:1"/><path d="M563.75 71.391h177.18v127.153c-.015 13.743-11.031 24.879-24.626 24.894H588.376c-13.594-.015-24.61-11.151-24.626-24.894z" style="fill:#fff;fill-opacity:1;stroke-width:.393808"/><path d="M705.895 168.58c-24.862.015-49.728-.031-74.588.037-1.57.324-2.087 2.057-2.911 3.218-6.696 10.788-13.444 21.546-20.075 32.37-.504 1.273.374 2.504 1.202 3.393 19.316 25.091 38.62 50.19 57.957 75.265 1.073 1.187 3.22.797 3.919-.606a130949.86 130949.86 0 0 0 58.492-76.02c.738-1.192.04-2.604-.731-3.58-6.93-11.119-13.799-22.28-20.79-33.356-.637-.642-1.608-.802-2.475-.721zm-72.545 4.752h71.99c6.537 10.519 13.078 21.035 19.617 31.553-18.586 24.147-37.174 48.292-55.762 72.437-18.585-24.145-37.172-48.29-55.756-72.437 6.539-10.518 13.079-21.034 19.616-31.553h.295z" style="fill:#4ea8f1;fill-opacity:1;stroke-width:1.63501" transform="matrix(.72618 0 0 .72618 166.389 2.858)"/><path d="M727.527 202.63c-8.82.056-17.646.009-26.47.024-30.266-.005-60.533.01-90.8.02-1.872.14-2.805 2.813-1.368 4.058 1.11 1.062 2.722.586 4.088.68 38.396-.003 76.794.015 115.189-.03 1.869-.155 2.78-2.873 1.293-4.074-.515-.472-1.239-.706-1.932-.677z" style="fill:#4ea8f1;fill-opacity:1;stroke-width:1.63501" transform="matrix(.72618 0 0 .72618 166.389 2.858)"/><path d="M658.564 168.584c-1.387.044-2.214 1.405-2.465 2.628-3.97 11.129-8.005 22.24-11.912 33.387-.142 1.607.793 3.04 1.078 4.585 7.267 24.365 14.49 48.747 21.81 73.094.723 1.65 3.424 1.749 4.2.088.735-1.389-.212-2.852-.518-4.218l-21.755-73.04c4.02-11.26 8.106-22.498 12.047-33.783.274-1.416-1.044-2.88-2.485-2.741z" style="fill:#4ea8f1;fill-opacity:1;stroke-width:1.63501" transform="matrix(.72618 0 0 .72618 166.389 2.858)"/><path d="M679.54 168.582c-1.7.027-2.788 2.159-1.946 3.596l11.785 32.924c-7.516 25.26-15.055 50.516-22.526 75.788-.356 1.82 1.928 3.435 3.508 2.4 1.362-.814 1.342-2.554 1.852-3.88 7.339-24.63 14.669-49.265 21.992-73.9.157-1.657-.915-3.08-1.289-4.64-3.736-10.39-7.404-20.808-11.219-31.167a2.432 2.432 0 0 0-2.158-1.121z" style="fill:#4ea8f1;fill-opacity:1;stroke-width:1.63501" transform="matrix(.72618 0 0 .72618 166.389 2.858)"/><text xml:space="preserve" x="609.042" y="116.292" style="font-weight:700;font-size:34.7741px;line-height:1.25;font-family:&quot;Segoe UI&quot;;-inkscape-font-specification:&quot;Segoe UI, Bold&quot;;fill:#4ea8f1;fill-opacity:1;stroke-width:.36223"><tspan x="609.042" y="116.292" style="font-size:34.7741px;fill:#4ea8f1;fill-opacity:1;stroke-width:.36223">JSON</tspan></text><path fill="#4ea8f1" d="M685.072 63.557a4.787 4.787 0 0 1-4.778-4.786.95.95 0 0 1 1.898 0 2.884 2.884 0 0 0 2.883 2.886 2.885 2.885 0 0 0 2.88-2.887 2.883 2.883 0 0 0-2.883-2.885.95.95 0 0 1 0-1.9 4.786 4.786 0 1 1 0 9.572zM700.411 63.557a4.789 4.789 0 0 1-4.78-4.786.95.95 0 0 1 1.899 0 2.884 2.884 0 0 0 2.881 2.888 2.885 2.885 0 0 0 2.883-2.888 2.884 2.884 0 0 0-2.883-2.886.95.95 0 0 1 0-1.9 4.779 4.779 0 0 1 4.166 2.384 4.794 4.794 0 0 1 0 4.804 4.78 4.78 0 0 1-4.166 2.384zM715.752 63.557a4.789 4.789 0 0 1-4.781-4.786.95.95 0 0 1 1.898 0 2.885 2.885 0 0 0 2.883 2.888 2.883 2.883 0 0 0 2.882-2.888 2.884 2.884 0 0 0-2.882-2.886.95.95 0 0 1 0-1.9 4.778 4.778 0 0 1 4.165 2.384 4.794 4.794 0 0 1 0 4.804 4.778 4.778 0 0 1-4.165 2.384zm0 0" style="stroke-width:2.64583333;stroke:#fff;stroke-dasharray:none;paint-order:stroke fill markers"/></svg>